<svg width="600" height="400" viewBox="0 0 600 400" xmlns="http://www.w3.org/2000/svg">
  <defs>
    <linearGradient id="bg5" x1="0%" y1="0%" x2="100%" y2="100%">
      <stop offset="0%" style="stop-color:#1a1a1a;stop-opacity:1" />
      <stop offset="100%" style="stop-color:#0a0a0a;stop-opacity:1" />
    </linearGradient>
    <linearGradient id="accent5" x1="0%" y1="0%" x2="100%" y2="0%">
      <stop offset="0%" style="stop-color:#10b981;stop-opacity:1" />
      <stop offset="100%" style="stop-color:#8b5cf6;stop-opacity:1" />
    </linearGradient>
  </defs>
  
  <!-- Background -->
  <rect width="600" height="400" fill="url(#bg5)"/>
  
  <!-- POS Header -->
  <rect x="0" y="0" width="600" height="60" fill="#1a1a1a"/>
  <rect x="40" y="15" width="100" height="30" rx="4" fill="url(#accent5)"/>
  <rect x="450" y="20" width="80" height="20" rx="4" fill="#333"/>
  <rect x="540" y="20" width="20" height="20" rx="10" fill="#10b981"/>
  
  <!-- Product Grid -->
  <rect x="40" y="80" width="350" height="300" rx="8" fill="#1a1a1a" stroke="#333" stroke-width="1"/>
  
  <!-- Product Categories -->
  <rect x="60" y="100" width="80" height="30" rx="4" fill="#10b981" opacity="0.3"/>
  <rect x="150" y="100" width="80" height="30" rx="4" fill="#333"/>
  <rect x="240" y="100" width="80" height="30" rx="4" fill="#333"/>
  
  <!-- Product Items Grid -->
  <rect x="60" y="150" width="90" height="70" rx="6" fill="#333"/>
  <rect x="160" y="150" width="90" height="70" rx="6" fill="#333"/>
  <rect x="260" y="150" width="90" height="70" rx="6" fill="#333"/>
  
  <rect x="60" y="230" width="90" height="70" rx="6" fill="#333"/>
  <rect x="160" y="230" width="90" height="70" rx="6" fill="#333"/>
  <rect x="260" y="230" width="90" height="70" rx="6" fill="#333"/>
  
  <!-- Product Icons -->
  <circle cx="105" cy="175" r="12" fill="url(#accent5)"/>
  <circle cx="205" cy="175" r="12" fill="url(#accent5)"/>
  <circle cx="305" cy="175" r="12" fill="url(#accent5)"/>
  
  <circle cx="105" cy="255" r="12" fill="url(#accent5)"/>
  <circle cx="205" cy="255" r="12" fill="url(#accent5)"/>
  <circle cx="305" cy="255" r="12" fill="url(#accent5)"/>
  
  <!-- Prices -->
  <rect x="70" y="190" width="30" height="8" rx="4" fill="#10b981"/>
  <rect x="170" y="190" width="30" height="8" rx="4" fill="#10b981"/>
  <rect x="270" y="190" width="30" height="8" rx="4" fill="#10b981"/>
  
  <rect x="70" y="270" width="30" height="8" rx="4" fill="#10b981"/>
  <rect x="170" y="270" width="30" height="8" rx="4" fill="#10b981"/>
  <rect x="270" y="270" width="30" height="8" rx="4" fill="#10b981"/>
  
  <!-- Cart/Receipt Area -->
  <rect x="410" y="80" width="150" height="300" rx="8" fill="#1a1a1a" stroke="#333" stroke-width="1"/>
  
  <!-- Cart Header -->
  <rect x="430" y="100" width="110" height="25" rx="4" fill="#8b5cf6" opacity="0.3"/>
  
  <!-- Cart Items -->
  <rect x="430" y="140" width="110" height="20" rx="4" fill="#333"/>
  <rect x="430" y="170" width="110" height="20" rx="4" fill="#333"/>
  <rect x="430" y="200" width="110" height="20" rx="4" fill="#333"/>
  
  <!-- Item Details -->
  <rect x="440" y="145" width="60" height="6" rx="3" fill="#666"/>
  <rect x="440" y="153" width="40" height="4" rx="2" fill="#10b981"/>
  
  <rect x="440" y="175" width="60" height="6" rx="3" fill="#666"/>
  <rect x="440" y="183" width="40" height="4" rx="2" fill="#10b981"/>
  
  <rect x="440" y="205" width="60" height="6" rx="3" fill="#666"/>
  <rect x="440" y="213" width="40" height="4" rx="2" fill="#10b981"/>
  
  <!-- Total Section -->
  <rect x="430" y="240" width="110" height="40" rx="6" fill="#10b981" opacity="0.2"/>
  <rect x="440" y="250" width="40" height="8" rx="4" fill="#10b981"/>
  <rect x="440" y="265" width="60" height="10" rx="4" fill="#10b981"/>
  
  <!-- Payment Buttons -->
  <rect x="430" y="300" width="110" height="30" rx="6" fill="#10b981"/>
  <rect x="430" y="340" width="110" height="30" rx="6" fill="#8b5cf6"/>
  
  <!-- Keypad Area -->
  <rect x="60" y="320" width="290" height="50" rx="6" fill="#333"/>
  
  <!-- Number Pad -->
  <circle cx="100" cy="340" r="8" fill="#555"/>
  <circle cx="130" cy="340" r="8" fill="#555"/>
  <circle cx="160" cy="340" r="8" fill="#555"/>
  <circle cx="200" cy="340" r="8" fill="#555"/>
  <circle cx="230" cy="340" r="8" fill="#555"/>
  <circle cx="260" cy="340" r="8" fill="#555"/>
  
  <!-- Project Label -->
  <text x="300" y="395" text-anchor="middle" fill="#10b981" font-family="Arial, sans-serif" font-size="16" font-weight="bold">POINT OF SALE SYSTEM</text>
</svg>